<svg xmlns="http://www.w3.org/2000/svg" width="673" height="724" viewBox="0 0 673 724"><defs><clipPath id="ju8ka"><path fill="#fff" d="M106.21 722.598s-31.155-211.236 43.01-194.986c74.166 16.25 93.392 73.775 44.624 77.457C145.076 608.75 82.07 482.11 117.782 442.99c35.713-39.12 134.143-60.947 224.73-65.365 90.589-4.418 243.576-60.74 246.647-131.287 3.07-70.548 13.904-105.046-44.104-130.899-58.008-25.853-99.945-98.773-122.482-37.2-22.536 61.57-1.464 98.283-141.252 149.911-139.79 51.628-194.692 144.933-241.59 53.5-46.897-91.432-45.754-160.689-5.009-165.816 40.745-5.127 207.404 23.045 172.386-44.785-35.017-67.83-48.406-54.279-66.883-21.602-18.478 32.676 86.976 209.447 140.741 217.355 53.765 7.908 108.515-36.024 227.335-18.748 118.82 17.276 181.47 17.44 153.535 81.18-27.935 63.74-11.963 113.24-107.271 122.56-95.309 9.318-62.533 16.849-108.682 2.989"/></clipPath></defs><g><g><g opacity=".37"><path fill="#e1e0e4" d="M55.616 170.553C84.426 71.268 241.463 18.035 406.37 51.655c164.907 33.62 275.235 141.36 246.426 240.645-28.81 99.285-237.893 356.723-402.8 323.103C85.09 581.784 26.808 269.837 55.617 170.553z"/></g><g><path fill="#efedf6" d="M444.756 507.457c7.49 75.362-65.84 131.029-169.893 118.275C147.075 610.068 51.976 501.644 88.951 416.857c22.91-52.536 139.51-181.15 222.924-145.675 71.397 30.365 127.737 184.51 132.881 236.275z"/></g><g><path fill="#515efc" d="M375.087 1.809c48.928-8.174 88.549 37.39 84.803 106.027-4.601 84.296-71.274 151.232-128.325 130.721-35.35-12.708-124.56-83.416-105.052-139.537C243.211 50.984 341.48 7.424 375.087 1.81z"/></g><g opacity=".59"><path fill="none" stroke="#fff" stroke-miterlimit="20" stroke-width="15.26" d="M106.21 722.598v0s-31.155-211.236 43.01-194.986c74.166 16.25 93.392 73.775 44.624 77.457C145.076 608.75 82.07 482.11 117.782 442.99c35.713-39.12 134.143-60.947 224.73-65.365 90.589-4.418 243.576-60.74 246.647-131.287 3.07-70.548 13.904-105.046-44.104-130.899-58.008-25.853-99.945-98.773-122.482-37.2-22.536 61.57-1.464 98.283-141.252 149.911-139.79 51.628-194.692 144.933-241.59 53.5-46.897-91.432-45.754-160.689-5.009-165.816 40.745-5.127 207.404 23.045 172.386-44.785-35.017-67.83-48.406-54.279-66.883-21.602-18.478 32.676 86.976 209.447 140.741 217.355 53.765 7.908 108.515-36.024 227.335-18.748 118.82 17.276 181.47 17.44 153.535 81.18-27.935 63.74-11.963 113.24-107.271 122.56-95.309 9.318-62.533 16.849-108.682 2.989" clip-path="url(&quot;#ju8ka&quot;)"/></g></g></g></svg>